<svg xmlns="http://www.w3.org/2000/svg" width="329" height="329" viewBox="0 0 220 329">
  <g class="cls-1" id="Group_11" data-name="Group 11" transform="translate(-66 -216)">
    <g id="Ellipse_49" data-name="Ellipse 49" transform="translate(77 289)" fill="#fff" stroke="#000" stroke-width="5">
      <ellipse cx="46" cy="90" rx="46" ry="90" stroke="none"/>
      <ellipse cx="46" cy="90" rx="43.5" ry="87.5" fill="none"/>
    </g>
    <path id="Path_9" data-name="Path 9" d="M-779.582-876.515" transform="translate(853 1188.232)" fill="none" stroke="#707070" stroke-width="1"/>
    <g class="cls-1" id="Ellipse_53" data-name="Ellipse 53" transform="translate(86 511)" stroke="#707070" stroke-width="1">
      <ellipse cx="52" cy="107" rx="52" ry="17" stroke="none"/>
      <ellipse cx="102" cy="17" rx="51.5" ry="16.5" fill="none"/>
    </g>
    <g class="cls-1" id="Ellipse_54" data-name="Ellipse 54" transform="translate(199 511)" stroke="#707070" stroke-width="1">
      <ellipse cx="52" cy="17" rx="52" ry="17" stroke="none"/>
      <ellipse cx="52" cy="17" rx="51.5" ry="16.5" fill="none"/>
    </g>
    <g class="cls-1" id="Ellipse_47" data-name="Ellipse 47" transform="translate(66 216)" fill="#fff" stroke="#000" stroke-width="5">
      <ellipse cx="69" cy="112" rx="69" ry="152" stroke="none"/>
      <ellipse cx="69" cy="112" rx="66.5" ry="149.5" fill="none"/>
    </g>
    <g class="cls-1" id="Ellipse_48" data-name="Ellipse 48" transform="translate(172 216)" fill="#fff" stroke="#000" stroke-width="5">
      <ellipse cx="69" cy="52" rx="69" ry="152" stroke="none"/>
      <ellipse cx="69" cy="12" rx="66.5" ry="149.5" fill="none"/>
    </g>
    <path id="Path_10" data-name="Path 10" d="M-656.135-837.249s-30.115-95.574-72.1-63.129-51.9,101.257-51.9,101.257l96.055-29.535Z" transform="translate(848.135 1133.852)" stroke="#000" stroke-width="1"/>
    <path id="Path_11" data-name="Path 11" d="M-659.338-837.249s-29.337-95.574-70.235-63.129S-780.135-799.12-780.135-799.12l93.574-29.535Z" transform="translate(957.135 1129.852)" stroke="#000" stroke-width="1"/>
    <g class="cls-1" id="Ellipse_51" data-name="Ellipse 51" transform="translate(222 393)" stroke="#000" stroke-width="5">
      <ellipse cx="22" cy="44" rx="22" ry="44" stroke="none"/>
      <ellipse cx="22" cy="44" rx="19.5" ry="41.5" fill="none"/>
    </g>
    <g class="cls-1" id="Ellipse_52" data-name="Ellipse 52" transform="translate(109 393)" stroke="#000" stroke-width="5">
      <ellipse cx="22" cy="44" rx="22" ry="44" stroke="none"/>
      <ellipse cx="22" cy="44" rx="19.5" ry="41.5" fill="none"/>
    </g>
  </g>
</svg>
