<svg xmlns="http://www.w3.org/2000/svg" width="324" height="312" viewBox="0 0 324 312">
  <g id="Group_33" data-name="Group 33" transform="translate(-25 -128)">
    <g id="Rectangle_2" data-name="Rectangle 2" transform="translate(25 128)" fill="#fff" stroke="#000" stroke-width="5">
      <rect class="cls-1"  width="324" height="312" rx="20" stroke="none"/>
      <rect class="cls-1"  x="2.5" y="2.5" width="319" height="307" rx="17.5" fill="none"/>
    </g>
    <g id="Group_7" data-name="Group 7" transform="translate(1 34)">
      <g id="Subtraction_1" data-name="Subtraction 1" transform="translate(-343 181)" fill="#fff">
        <path class="cls-1"   d="M 504.5004272460938 180.4997100830078 C 499.2743530273438 180.4997100830078 494.0523071289062 179.9733734130859 488.9793090820312 178.9353179931641 C 484.0366821289062 177.9239196777344 479.1748962402344 176.4147491455078 474.5289306640625 174.44970703125 C 469.9670104980469 172.5202484130859 465.5666809082031 170.1318511962891 461.4501953125 167.3508605957031 C 457.3724060058594 164.5960083007812 453.5377197265625 161.4320983886719 450.0526123046875 157.9470062255859 C 446.5675659179688 154.4620056152344 443.4036254882812 150.6273345947266 440.648681640625 146.5495452880859 C 437.8677673339844 142.4331970214844 435.4793701171875 138.032958984375 433.5498657226562 133.4710083007812 C 431.5848388671875 128.8252868652344 430.07568359375 123.9635543823242 429.0642395019531 119.0207901000977 C 428.0261840820312 113.9480514526367 427.4998168945312 108.7260971069336 427.4998168945312 103.5000076293945 C 427.4998168945312 98.27391815185547 428.0261840820312 93.05196380615234 429.0642395019531 87.97922515869141 C 430.07568359375 83.03646087646484 431.5848388671875 78.17472839355469 433.5498352050781 73.52902984619141 C 435.4793701171875 68.96704864501953 437.8677673339844 64.56681060791016 440.6487121582031 60.45046234130859 C 443.4036254882812 56.3726806640625 446.5675659179688 52.53800582885742 450.0526123046875 49.05300903320312 C 453.5376586914062 45.56796264648438 457.3723754882812 42.40407180786133 461.4501953125 39.6491813659668 C 465.5666809082031 36.86818313598633 469.9670104980469 34.47978973388672 474.5289001464844 32.55031204223633 C 479.1748962402344 30.58526802062988 484.0366821289062 29.07609367370605 488.9793090820312 28.06468200683594 C 492.4310913085938 27.35837554931641 495.9521179199219 26.88896560668945 499.4962158203125 26.66108322143555 C 496.4779968261719 31.17718505859375 494.0413818359375 36.03804016113281 492.2283630371094 41.16755294799805 C 489.7546997070312 48.1661376953125 488.5004272460938 55.51163864135742 488.5004272460938 63.00000762939453 C 488.5004272460938 71.84140014648438 490.2325744628906 80.41961669921875 493.6487426757812 88.49635314941406 C 495.2906188964844 92.37813568115234 497.3226013183594 96.12181091308594 499.688232421875 99.62342071533203 C 502.0310974121094 103.0912933349609 504.7215576171875 106.3521575927734 507.6848754882812 109.3155288696289 C 510.6483154296875 112.2789459228516 513.9091796875 114.9693984985352 517.376953125 117.3122024536133 C 520.878662109375 119.6778564453125 524.6223754882812 121.709831237793 528.5040283203125 123.3516616821289 C 536.5808715820312 126.7678527832031 545.1590576171875 128.5 554.0004272460938 128.5 C 559.21923828125 128.5 564.4150390625 127.8836135864258 569.4435424804688 126.6679458618164 C 572.64697265625 125.8935165405273 575.7936401367188 124.8734817504883 578.8460083007812 123.621696472168 C 576.9877319335938 130.512939453125 574.1778564453125 137.0948333740234 570.4636840820312 143.2455291748047 C 565.97119140625 150.6853179931641 560.29296875 157.2741088867188 553.586669921875 162.8289642333984 C 546.827880859375 168.4273071289062 539.2431030273438 172.7926635742188 531.0428466796875 175.8037414550781 C 522.5567626953125 178.9197540283203 513.6265869140625 180.4997100830078 504.5004272460938 180.4997100830078 Z" stroke="none"/>
        <path class="cls-1"  d="M 504.5004272460938 177.9997100830078 C 513.3316040039062 177.9997100830078 521.9718627929688 176.4713134765625 530.18115234375 173.4569549560547 C 538.1141357421875 170.5439758300781 545.4523315429688 166.3204650878906 551.991943359375 160.9036865234375 C 558.4817504882812 155.5281372070312 563.9765014648438 149.1522827148438 568.3236083984375 141.9532012939453 C 571.0577392578125 137.4255065917969 573.2853393554688 132.6561737060547 574.9861450195312 127.697509765625 C 573.3525390625 128.2272491455078 571.69921875 128.6946563720703 570.031005859375 129.0979614257812 C 564.810302734375 130.3600616455078 559.4168090820312 131 554.0004272460938 131 C 544.8226928710938 131 535.9168090820312 129.2014007568359 527.5300903320312 125.6541595458984 C 523.499755859375 123.9494552612305 519.6129150390625 121.8397827148438 515.9774169921875 119.3837356567383 C 512.3778076171875 116.9518585205078 508.9930419921875 114.1591796875 505.9171447753906 111.0832824707031 C 502.84130859375 108.0074844360352 500.0486450195312 104.6227111816406 497.6166687011719 101.0229568481445 C 495.1606750488281 97.38755798339844 493.0509948730469 93.50067901611328 491.3462219238281 89.47023010253906 C 487.7990417480469 81.08367919921875 486.0004272460938 72.17781066894531 486.0004272460938 63.00000762939453 C 486.0004272460938 55.22708129882812 487.3027954101562 47.60128402709961 489.8712768554688 40.33443450927734 C 491.182861328125 36.62359619140625 492.8087768554688 33.04812622070312 494.7340698242188 29.63504791259766 C 492.9688110351562 29.86573600769043 491.2157287597656 30.15889549255371 489.4805297851562 30.51395797729492 C 484.6994934082031 31.49228286743164 479.9967346191406 32.95208358764648 475.5027465820312 34.85283279418945 C 471.0894775390625 36.71943283081055 466.8323669433594 39.03013229370117 462.8496704101562 41.72073364257812 C 458.9037170410156 44.38655853271484 455.1929016113281 47.44825744628906 451.8203735351562 50.82078170776367 C 448.4478454589844 54.19330596923828 445.3861083984375 57.90408325195312 442.7202453613281 61.85000610351562 C 440.0296936035156 65.83255767822266 437.718994140625 70.08960723876953 435.8523559570312 74.5029296875 C 433.9516296386719 78.99665832519531 432.4918212890625 83.69935607910156 431.5134887695312 88.48040771484375 C 430.5090942382812 93.38867950439453 429.9998168945312 98.44200897216797 429.9998168945312 103.5000076293945 C 429.9998168945312 108.5580062866211 430.5090942382812 113.6113357543945 431.5134887695312 118.5196075439453 C 432.4918212890625 123.3006591796875 433.9516296386719 128.0033569335938 435.8524169921875 132.4971771240234 C 437.7189636230469 136.9103851318359 440.0296630859375 141.1674041748047 442.7202453613281 145.1500091552734 C 445.3861694335938 149.0960083007812 448.4478454589844 152.8067779541016 451.8203735351562 156.1792602539062 C 455.1929016113281 159.5517578125 458.9037170410156 162.6134643554688 462.8496704101562 165.2792816162109 C 466.8323669433594 167.9698791503906 471.0894775390625 170.2805786132812 475.5027770996094 172.1471862792969 C 479.9967956542969 174.0479583740234 484.6995849609375 175.5077819824219 489.48046875 176.486083984375 C 494.3889465332031 177.4904632568359 499.4423828125 177.9997100830078 504.5004272460938 177.9997100830078 M 504.5004272460938 182.9997100830078 C 499.1063232421875 182.9997100830078 493.7156677246094 182.4562835693359 488.4781494140625 181.3845825195312 C 483.3737487792969 180.340087890625 478.3529052734375 178.7815093994141 473.5550537109375 176.7522277832031 C 468.8443603515625 174.7598266601562 464.3008422851562 172.293701171875 460.0506896972656 169.4224090576172 C 455.8409729003906 166.5784301757812 451.8823852539062 163.3123016357422 448.2848510742188 159.7147827148438 C 444.6873168945312 156.1173095703125 441.4211730957031 152.1587371826172 438.5771484375 147.9490509033203 C 435.705810546875 143.6989288330078 433.2397155761719 139.1554870605469 431.2473449707031 134.4448852539062 C 429.2180786132812 129.6472625732422 427.6595153808594 124.6264572143555 426.614990234375 119.5219802856445 C 425.5432434082031 114.2846069335938 424.9998168945312 108.8940353393555 424.9998168945312 103.5000076293945 C 424.9998168945312 98.10597991943359 425.5432434082031 92.71540832519531 426.614990234375 87.47803497314453 C 427.6595153808594 82.37355804443359 429.2180786132812 77.35276031494141 431.2473449707031 72.55513000488281 C 433.2397155761719 67.84455871582031 435.705810546875 63.30108261108398 438.5771484375 59.05095672607422 C 441.4211730957031 54.84128189086914 444.6873168945312 50.88273239135742 448.2848510742188 47.28523254394531 C 451.8823852539062 43.68770599365234 455.8409729003906 40.42158126831055 460.0506896972656 37.57760620117188 C 464.3008422851562 34.70630645751953 468.8443603515625 32.24018096923828 473.5550537109375 30.24778175354004 C 478.3529052734375 28.21850776672363 483.3737487792969 26.65995788574219 488.4781494140625 25.61545753479004 C 493.7156677246094 24.54373168945312 499.1063232421875 24.00030708312988 504.5004272460938 24.00030708312988 L 504.5099792480469 24.00030708312988 L 504.5195922851562 24.00033187866211 C 500.2277526855469 29.43860816955566 496.8851623535156 35.49425888061523 494.5854797363281 42.00065612792969 C 492.2066040039062 48.73100662231445 491.0004272460938 55.79620742797852 491.0004272460938 63.00000762939453 C 491.0004272460938 71.50495910644531 492.6661071777344 79.75550842285156 495.9512634277344 87.52248382568359 C 497.5302124023438 91.25548553466797 499.4844665527344 94.85595703125 501.7597961425781 98.22393035888672 C 504.0135803222656 101.559928894043 506.6018371582031 104.6969299316406 509.4526672363281 107.5477600097656 C 512.303466796875 110.3985595703125 515.4404296875 112.9868316650391 518.7764892578125 115.2406311035156 C 522.1443481445312 117.5158843994141 525.7448120117188 119.4701614379883 529.4779052734375 121.0491561889648 C 537.2449340820312 124.3343048095703 545.4954833984375 126.0000076293945 554.0004272460938 126.0000076293945 C 559.0215454101562 126.0000076293945 564.0197143554688 125.4071578979492 568.8560791015625 124.2379608154297 C 573.5551147460938 123.1019592285156 578.1268920898438 121.4164581298828 582.4443969726562 119.2282562255859 C 580.646728515625 128.1872863769531 577.3353271484375 136.7023010253906 572.603759765625 144.5378265380859 C 567.9659423828125 152.2183074951172 562.1041870117188 159.0201110839844 555.181396484375 164.7542877197266 C 548.2034301757812 170.5342102050781 540.3719482421875 175.0413513183594 531.9046020507812 178.1505279541016 C 523.1416015625 181.3682098388672 513.9215087890625 182.9997100830078 504.5004272460938 182.9997100830078 Z" stroke="none"/>
      </g>
      <g id="Ellipse_29" data-name="Ellipse 29" transform="translate(186 149)" fill="#fff" stroke="#000" stroke-width="5">
        <ellipse class="cls-1"  cx="59" cy="61" rx="59" ry="61" stroke="none"/>
        <ellipse class="cls-1"  cx="59" cy="61" rx="56.5" ry="58.5" fill="none"/>
      </g>
    </g>
  </g>
</svg>
