<svg xmlns="http://www.w3.org/2000/svg" width="349.704" height="287.807" viewBox="0 0 349.704 287.807">
  <g id="Group_32" data-name="Group 32" transform="translate(5776.704 -3549.238)">
    <g  class="cls-1"id="Group_31" data-name="Group 31" transform="translate(-5774.166 3551.738)">
      <g  class="cls-1"id="Ellipse_15" data-name="Ellipse 15" transform="translate(265.204 129.742) rotate(-30)" fill="#fff" stroke="#000" stroke-width="5">
        <circle cx="30" cy="30" r="30" stroke="none"/>
        <circle cx="30" cy="30" r="27.5" fill="none"/>
      </g>
      <g  class="cls-1"id="Ellipse_16" data-name="Ellipse 16" transform="translate(303.293 159.713) rotate(-120)" fill="#fff" stroke="#000" stroke-width="5">
        <ellipse cx="15.5" cy="12" rx="15.5" ry="12" stroke="none"/>
        <ellipse cx="15.5" cy="12" rx="13" ry="9.5" fill="none"/>
      </g>
      <path class="cls-1" id="Path_1" data-name="Path 1" d="M0,226.992,130.255,0" transform="translate(111.961 226.3) rotate(-120)" fill="#c0e4e6" stroke="#000" stroke-width="5"/>
      <path class="cls-1" id="Path_2" data-name="Path 2" d="M0,228.135,130.509,0" transform="translate(112.088 282.807) rotate(-120)" fill="#c0e4e6" stroke="#000" stroke-width="5"/>
      <path class="cls-1" id="Path_3" data-name="Path 3" d="M0,24.418S6.656,1.075,25.283.065,52.46,9.964,56,24.418" transform="translate(93.255 168.91) rotate(-91)" fill="none" stroke="#000" stroke-width="5"/>
      <path class="cls-1" id="Path_5" data-name="Path 5" d="M56,47.864C49.052,34.69,43.909,22.5,25.283,23.51S0,47.864,0,47.864,19.151.33,26.522,0,56,47.864,56,47.864Z" transform="translate(0.977 169.9) rotate(-91)" fill="none" stroke="#000" stroke-width="5"/>
      <path class="cls-1" id="Path_4" data-name="Path 4" d="M0,24.418S6.656,1.075,25.283.065,52.46,9.964,56,24.418" transform="translate(213.126 169.783) rotate(-91)" fill="none" stroke="#000" stroke-width="5"/>
    </g>
  </g>
</svg>
