<svg xmlns="http://www.w3.org/2000/svg" width="324" height="312" viewBox="0 0 324 312">
  <g id="Group_35" data-name="Group 35" transform="translate(-27 -1124)">
    <g id="Rectangle_22" data-name="Rectangle 22" transform="translate(27 1124)" fill="#fff" stroke="#000" stroke-width="5">
      <rect class="cls-1" width="324" height="312" rx="20" stroke="none"/>
      <rect class="cls-1"  x="2.5" y="2.5" width="319" height="307" rx="17.5" fill="none"/>
    </g>
    <g id="Group_4" data-name="Group 4" transform="translate(1 34)">
      <g class="cls-1" id="Polygon_7" data-name="Polygon 7" transform="translate(118 1138)" fill="#fff">
        <path class="cls-1" d="M 200.1321411132812 140.5 L 4.867857456207275 140.5 L 102.5 4.29125452041626 L 200.1321411132812 140.5 Z" stroke="none"/>
        <path class="cls-1"  d="M 102.5 8.582504272460938 L 9.7357177734375 138 L 195.2642822265625 138 L 102.5 8.582504272460938 M 102.5 0 L 205 143 L 0 143 L 102.5 0 Z" stroke="none"/>
      </g>
      <g id="Subtraction_2" data-name="Subtraction 2" transform="translate(58 1138)" fill="#fff">
        <path class="cls-1"  d="M 192.8148498535156 180.5004119873047 L 4.184771537780762 180.5004119873047 L 98.49980163574219 5.274776458740234 L 112.4436950683594 31.18077278137207 C 100.3477554321289 37.27793884277344 90.17942047119141 45.68980407714844 82.92556762695312 55.62401580810547 C 78.99117279052734 61.01211929321289 75.95006561279297 66.79580688476562 73.88672637939453 72.81440734863281 C 71.75306701660156 79.03809356689453 70.67122650146484 85.49964904785156 70.67122650146484 92.01956939697266 C 70.67122650146484 101.7643280029297 73.04508972167969 111.211669921875 77.72688293457031 120.0991973876953 C 79.96853637695312 124.3544845581055 82.74050903320312 128.4556732177734 85.96580505371094 132.2888336181641 C 89.15096282958984 136.0742797851562 92.80593109130859 139.631591796875 96.82924652099609 142.8619384765625 C 100.8427734375 146.0844573974609 105.2564086914062 149.0086517333984 109.9475402832031 151.5532531738281 C 114.6751937866211 154.1177215576172 119.727409362793 156.3197174072266 124.9638519287109 158.0980682373047 C 135.84033203125 161.7917175292969 147.3887786865234 163.6645660400391 159.2884063720703 163.6645660400391 C 167.1416168212891 163.6645660400391 174.9153137207031 162.8360900878906 182.4265289306641 161.2001953125 L 192.8148498535156 180.5004119873047 Z" stroke="none"/>
        <path class="cls-1" d="M 196.997802734375 188.0003967285156 L 196.9987030029297 183.0008850097656 L 196.997802734375 188.0003967285156 M 188.6301116943359 178.0003967285156 L 181.1098022460938 164.0286254882812 C 174.0005035400391 165.4469451904297 166.6779632568359 166.16455078125 159.2883911132812 166.16455078125 C 147.1147766113281 166.16455078125 135.2958679199219 164.2470550537109 124.1599197387695 160.4652557373047 C 118.7899169921875 158.6415863037109 113.6071243286133 156.3824920654297 108.7555084228516 153.7507629394531 C 103.9330368041992 151.1348724365234 99.39385986328125 148.1272277832031 95.26400756835938 144.8113403320312 C 91.11433410644531 141.4794921875 87.34236145019531 137.8078460693359 84.05288696289062 133.8984069824219 C 80.71247863769531 129.9284362792969 77.83995056152344 125.6777267456055 75.51500701904297 121.2643737792969 C 70.64200592041016 112.0138778686523 68.17121124267578 102.1744918823242 68.17121124267578 92.01957702636719 C 68.17121124267578 85.22322845458984 69.29853820800781 78.48887634277344 71.52185821533203 72.00363922119141 C 73.66656494140625 65.74764251708984 76.82400512695312 59.74072647094727 80.90650939941406 54.14975738525391 C 87.93248748779297 44.527587890625 97.59049224853516 36.29770660400391 109.0414962768555 30.13464164733887 L 98.49980163574219 10.54949188232422 L 8.369511604309082 178.0003967285156 L 188.6301116943359 178.0003967285156 M 196.9996032714844 183.0003967285156 L 196.997802734375 183.0003967285156 L 196.9996032714844 183.0003967285156 Z M 196.9996032714844 183.0003967285156 L 7.518095117120538e-06 183.0003967285156 L 98.49980163574219 -7.518095117120538e-06 L 115.8793029785156 32.28893280029297 C 103.1184158325195 38.28010940551758 92.42153930664062 46.85855102539062 84.94456481933594 57.09831619262695 C 81.15824127197266 62.28369903564453 78.23350524902344 67.84410858154297 76.25162506103516 73.62513732910156 C 74.20762634277344 79.58731842041016 73.17121124267578 85.77607727050781 73.17121124267578 92.01957702636719 C 73.17121124267578 101.3541107177734 75.44815826416016 110.4094314575195 79.93874359130859 118.9340209960938 C 82.09712219238281 123.0312271118164 84.76853942871094 126.9828720092773 87.87874603271484 130.6792907714844 C 90.95944976806641 134.3406066894531 94.49745178222656 137.7836151123047 98.39441680908203 140.9125518798828 C 102.2915344238281 144.0415802001953 106.5796279907227 146.8822631835938 111.139533996582 149.3557281494141 C 115.7433013916016 151.8529968261719 120.6649475097656 153.9978790283203 125.7677688598633 155.7308502197266 C 136.3847503662109 159.3363800048828 147.6627197265625 161.16455078125 159.2883911132812 161.16455078125 C 167.6036224365234 161.16455078125 175.8258361816406 160.2144927978516 183.7265930175781 158.3407897949219 L 196.9987945556641 182.9989013671875 L 196.9996032714844 183.0003967285156 Z" stroke="none"/>
      </g>
    </g>
  </g>
</svg>
