<svg xmlns="http://www.w3.org/2000/svg" width="324" height="312" viewBox="0 0 324 312">
  <g id="Group_34" data-name="Group 34" transform="translate(-27 -455)">
    <g  class="cls-1"id="Rectangle_14" data-name="Rectangle 14" transform="translate(27 455)" fill="#fff" stroke="#000" stroke-width="5">
      <rect class="cls-1" width="324" height="312" rx="20" stroke="none"/>
      <rect class="cls-1" x="2.5" y="2.5" width="319" height="307" rx="17.5" fill="none"/>
    </g>
    <g  class="cls-1"id="Group_6" data-name="Group 6" transform="translate(1 34)">
      <g class="cls-1" id="Union_2" data-name="Union 2" transform="translate(-379.962 440)" fill="#fff">
        <path  class="cls-1" d="M 462.4849853515625 208.586669921875 L 428.0616760253906 80.1181640625 L 514.9801025390625 56.8284797668457 L 516.2409057617188 56.49067306518555 L 516.684326171875 55.26309585571289 C 519.3681640625 47.83401870727539 523.6700439453125 40.80259704589844 529.4703979492188 34.3641357421875 C 535.2183227539062 27.9839038848877 542.2852783203125 22.35032653808594 550.4749145507812 17.61990356445312 C 558.7823486328125 12.82144165039062 568.0180053710938 9.085248947143555 577.9253540039062 6.515133857727051 C 588.195556640625 3.850903034210205 598.974365234375 2.50001859664917 609.96240234375 2.50001859664917 C 623.0729370117188 2.50001859664917 635.7860107421875 4.40471076965332 647.7485961914062 8.161133766174316 C 653.4873657226562 9.963211059570312 659.0201416015625 12.1925573348999 664.1932983398438 14.78724956512451 C 669.306396484375 17.35182571411133 674.1116333007812 20.29494094848633 678.4756469726562 23.53482627868652 C 682.8260498046875 26.76471138000488 686.7726440429688 30.31528854370117 690.2056274414062 34.08794021606445 C 693.6576538085938 37.88144302368164 696.6199340820312 41.93228912353516 699.01025390625 46.12797927856445 C 701.4345703125 50.38340377807617 703.29541015625 54.83244323730469 704.5409545898438 59.35155868530273 C 705.8159790039062 63.97743988037109 706.46240234375 68.73774719238281 706.46240234375 73.50028991699219 C 706.46240234375 82.43728637695312 704.2279052734375 91.15229034423828 699.8209838867188 99.40321350097656 C 697.6881103515625 103.3964385986328 695.0389404296875 107.274055480957 691.947021484375 110.9283294677734 C 688.87548828125 114.5585174560547 685.3335571289062 118.0081329345703 681.4197387695312 121.1812896728516 C 677.5018310546875 124.3577880859375 673.1710205078125 127.2899017333984 668.547607421875 129.8962097167969 C 663.8836669921875 132.5253295898438 658.8727416992188 134.8505249023438 653.6541748046875 136.8072052001953 C 642.843017578125 140.8607482910156 631.2278442382812 143.3422546386719 619.1312255859375 144.1827087402344 L 616.1044311523438 144.3930206298828 L 616.8897094726562 147.3237457275391 L 621.8621826171875 165.8815612792969 L 462.4849853515625 208.586669921875 Z" stroke="none"/>
        <path class="cls-1" d="M 609.96240234375 5 C 599.18603515625 5 588.6184692382812 6.32391357421875 578.5531005859375 8.935043334960938 C 568.8638305664062 11.44857788085938 559.837646484375 15.09892272949219 551.725341796875 19.78471374511719 C 543.7628784179688 24.3839111328125 536.900146484375 29.85212707519531 531.3278198242188 36.03746032714844 C 525.7448120117188 42.23466491699219 521.609130859375 48.98887634277344 519.03564453125 56.11250305175781 L 518.148681640625 58.56767272949219 L 515.6271362304688 59.2432861328125 L 431.12353515625 81.88594055175781 L 464.2527465820312 205.5247802734375 L 618.80029296875 164.11376953125 L 614.474853515625 147.9707946777344 L 612.9043579101562 142.1093292236328 L 618.9578857421875 141.6887512207031 C 630.8134765625 140.864990234375 642.191650390625 138.4350433349609 652.7764892578125 134.4663391113281 C 657.874755859375 132.5547485351562 662.7679443359375 130.284423828125 667.3199462890625 127.718376159668 C 671.8217163085938 125.1806640625 676.0358276367188 122.3278732299805 679.8452758789062 119.2393341064453 C 683.6381225585938 116.1642913818359 687.0675659179688 112.8247528076172 690.03857421875 109.3134994506836 C 693.0166015625 105.7937927246094 695.5660400390625 102.0632095336914 697.6157836914062 98.22541809082031 C 701.8271484375 90.34078979492188 703.96240234375 82.02203369140625 703.96240234375 73.50028991699219 C 703.96240234375 64.45645141601562 701.5654296875 55.6634521484375 696.8380126953125 47.36549377441406 C 694.5386352539062 43.32933044433594 691.68505859375 39.42825317382812 688.3566284179688 35.77049255371094 C 685.0321655273438 32.11717224121094 681.206298828125 28.67582702636719 676.9853515625 25.54212951660156 C 672.7374267578125 22.38833618164062 668.056396484375 19.52171325683594 663.0724487304688 17.02188110351562 C 658.0186157226562 14.48704528808594 652.6109619140625 12.30833435058594 646.9995727539062 10.54629516601562 C 635.2796630859375 6.866043090820312 622.818603515625 5 609.96240234375 5 M 609.96240234375 0 C 664.6383056640625 0 708.96240234375 32.90670776367188 708.96240234375 73.50028991699219 C 708.96240234375 111.7541656494141 669.5997314453125 143.18212890625 619.3045043945312 146.6766967773438 L 624.9239501953125 167.6492919921875 L 460.7172241210938 211.6484985351562 L 424.9998168945312 78.35041809082031 L 514.3330688476562 54.41366577148438 C 525.6542358398438 23.07562255859375 564.1792602539062 0 609.96240234375 0 Z" stroke="none"/>
      </g>
      <g id="Union_1" data-name="Union 1" transform="translate(-288 466)" fill="#fff">
        <path class="cls-1" d="M 587.8264770507812 211.5001983642578 L 429.1735534667969 211.5001983642578 L 459.2709350585938 155.2703247070312 L 460.5700378417969 152.8432159423828 L 458.0293579101562 151.7832946777344 C 452.2185363769531 149.3591156005859 447.6536865234375 144.5079040527344 445.5052490234375 138.4735870361328 C 443.3701171875 132.4766082763672 443.8655700683594 126.0516128540039 446.900390625 120.3821105957031 L 488.6631469726562 42.35837554931641 C 489.6994934082031 40.42213821411133 490.9773864746094 38.66929626464844 492.4612426757812 37.14850616455078 C 493.8763427734375 35.69819259643555 495.4841918945312 34.45240020751953 497.2401733398438 33.44574356079102 C 500.6287841796875 31.50311279296875 504.5223999023438 30.47629737854004 508.5 30.47629737854004 C 512.4776000976562 30.47629737854004 516.3712158203125 31.50311279296875 519.7598266601562 33.44574356079102 C 521.5158081054688 34.45240020751953 523.1236572265625 35.69819259643555 524.5387573242188 37.14850616455078 C 526.0226440429688 38.66929626464844 527.3004760742188 40.42213821411133 528.3368530273438 42.35837554931641 L 570.099609375 120.3820571899414 C 573.1344604492188 126.0516128540039 573.6299438476562 132.4766082763672 571.4948120117188 138.4735870361328 C 569.3463745117188 144.5079040527344 564.781494140625 149.3591156005859 558.970703125 151.7832946777344 L 556.4299926757812 152.8432159423828 L 557.7291259765625 155.2703247070312 L 587.8264770507812 211.5001983642578 Z" stroke="none"/>
        <path class="cls-1" d="M 583.6527709960938 209.0002136230469 L 555.5249633789062 156.4500732421875 L 552.9267578125 151.5958709716797 L 558.0081176757812 149.4760131835938 C 563.1697998046875 147.3226318359375 567.2271118164062 143.0067596435547 569.1395874023438 137.6350708007812 C 571.0353393554688 132.3104400634766 570.5935668945312 126.6022415161133 567.8954467773438 121.5618209838867 L 526.1327514648438 43.53812789916992 C 524.31005859375 40.13279342651367 521.74755859375 37.46693420410156 518.5164794921875 35.61462783813477 C 515.5056762695312 33.88862609863281 512.0420532226562 32.97629547119141 508.5 32.97629547119141 C 504.9579467773438 32.97629547119141 501.4942932128906 33.88862609863281 498.4835205078125 35.61462783813477 C 495.2524719238281 37.46693420410156 492.6899719238281 40.13279342651367 490.8672485351562 43.53812789916992 L 449.1044921875 121.5619583129883 C 446.406494140625 126.6022109985352 445.9646606445312 132.3104400634766 447.8604431152344 137.6350402832031 C 449.77294921875 143.0067596435547 453.8302307128906 147.3226318359375 458.9919128417969 149.4760131835938 L 464.0732727050781 151.5958709716797 L 461.4750671386719 156.4500732421875 L 433.3472900390625 209.0002136230469 L 583.6527709960938 209.0002136230469 M 592.000244140625 214.0002136230469 L 424.9998168945312 214.0002136230469 L 457.0668029785156 154.0905456542969 C 444.1091003417969 148.6847991943359 437.4266052246094 132.7831573486328 444.6963500976562 119.2022933959961 L 486.4590148925781 41.1786003112793 C 491.1700439453125 32.37705612182617 499.8350219726562 27.97628784179688 508.5 27.97628784179688 C 517.1649780273438 27.97628784179688 525.8299560546875 32.37705612182617 530.541015625 41.1786003112793 L 572.3037109375 119.2022933959961 C 579.5734252929688 132.7831573486328 572.8909301757812 148.6847991943359 559.9332275390625 154.0905456542969 L 592.000244140625 214.0002136230469 Z" stroke="none"/>
      </g>
    </g>
  </g>
</svg>
