<svg xmlns="http://www.w3.org/2000/svg" width="324" height="312" viewBox="0 0 324 312">
  <g id="Group_36" data-name="Group 36" transform="translate(-26 -748)">
    <g id="Rectangle_15" data-name="Rectangle 15" transform="translate(26 748)" fill="#fff" stroke="#000" stroke-width="5">
      <rect class="cls-1"  width="324" height="312" rx="20" stroke="none"/>
      <rect class="cls-1"  x="2.5" y="2.5" width="319" height="307" rx="17.5" fill="none"/>
    </g>
    <g id="Group_5" data-name="Group 5" transform="translate(-19 -4)">
      <g id="Rectangle_24" data-name="Rectangle 24" transform="translate(92 767)" fill="#fff" stroke="#000" stroke-width="5">
        <rect class="cls-1"  width="197" height="185" rx="43" stroke="none"/>
        <rect class="cls-1"  x="2.5" y="2.5" width="192" height="180" rx="40.5" fill="none"/>
      </g>
    </g>
    <g id="Group_28" data-name="Group 28" transform="translate(-47 83)">
      <g id="Rectangle_24-2" data-name="Rectangle 24" transform="translate(92 767)" fill="#fff" stroke="#000" stroke-width="5">
        <rect class="cls-1"  width="197" height="185" rx="43" stroke="none"/>
        <rect class="cls-1"  x="2.5" y="2.5" width="192" height="180" rx="40.5" fill="none"/>
      </g>
    </g>
    <g id="Group_29" data-name="Group 29" transform="translate(45 101)">
      <g id="Rectangle_24-3" data-name="Rectangle 24" transform="translate(92 767)" fill="#fff" stroke="#000" stroke-width="5">
        <rect class="cls-1"  width="197" height="185" rx="43" stroke="none"/>
        <rect class="cls-1"  x="2.5" y="2.5" width="192" height="180" rx="40.5" fill="none"/>
      </g>
    </g>
    <g id="Group_30" data-name="Group 30" transform="translate(25 36)">
      <g id="Rectangle_24-4" data-name="Rectangle 24" transform="translate(92 767)" fill="#fff" stroke="#000" stroke-width="5">
        <rect class="cls-1"  width="197" height="185" rx="43" stroke="none"/>
        <rect class="cls-1"  x="2.5" y="2.5" width="192" height="180" rx="40.5" fill="none"/>
      </g>
    </g>
  </g>
</svg>
